<?xml version="1.0" standalone="no"?>
<!DOCTYPE svg PUBLIC "-//W3C//DTD SVG 1.1//EN" "http://www.w3.org/Graphics/SVG/1.1/DTD/svg11.dtd" >
<!--
2013-9-30: Created.
-->
<svg>
<metadata>
Created by iconfont
</metadata>
<defs>

<font id="iconfont" horiz-adv-x="1024" >
  <font-face
    font-family="iconfont"
    font-weight="500"
    font-stretch="normal"
    units-per-em="1024"
    ascent="896"
    descent="-128"
  />
    <missing-glyph />
    
    <glyph glyph-name="shujubaobiao-" unicode="&#58891;" d="M1136.152381 896H24.380952C9.752381 896 0 886.247619 0 871.619048s9.752381-24.380952 24.380952-24.380953h97.52381v-468.114285c0-146.285714 117.028571-263.314286 258.438095-268.190477v-195.047619H146.285714c-14.628571 0-24.380952-9.752381-24.380952-24.380952s9.752381-19.504762 24.380952-19.504762h872.838096c14.628571 0 24.380952 9.752381 24.380952 24.380952s-14.628571 24.380952-29.257143 24.380953H780.190476v195.047619c141.409524 4.87619 258.438095 121.904762 258.438095 268.190476V847.238095h97.52381c14.628571 0 24.380952 9.752381 24.380952 24.380953s-9.752381 24.380952-24.380952 24.380952zM429.104762-79.238095v190.171428H731.428571V-79.238095H429.104762z m565.638095 458.361905c0-121.904762-97.52381-219.428571-219.428571-219.428572H390.095238c-121.904762 0-219.428571 97.52381-219.428571 219.428572V847.238095h824.07619v-468.114285zM302.32381 359.619048l102.4 141.409523 151.161904-195.047619 214.552381 331.580953 87.771429-117.028572c9.752381-9.752381 24.380952-14.628571 34.133333-4.87619 9.752381 9.752381 14.628571 24.380952 4.876191 34.133333l-131.657143 175.542857-214.552381-336.457143-146.285714 195.04762-141.409524-195.04762c-9.752381-9.752381-4.87619-24.380952 4.87619-34.133333 9.752381-9.752381 24.380952-4.87619 34.133334 4.876191z"  horiz-adv-x="1160" />

    
    <glyph glyph-name="gongzuotai-" unicode="&#58892;" d="M838.704762 37.790476c146.285714 0 268.190476 121.904762 268.190476 268.190476V627.809524c0 146.285714-121.904762 268.190476-268.190476 268.190476H268.190476C121.904762 896 0 774.095238 0 627.809524v-321.828572c0-146.285714 121.904762-268.190476 268.190476-268.190476h165.790476V-79.238095H73.142857c-14.628571 0-24.380952-9.752381-24.380952-24.380953s9.752381-24.380952 24.380952-24.380952h965.485714c14.628571 0 24.380952 9.752381 24.380953 24.380952s-14.628571 24.380952-29.257143 24.380953h-365.714286v117.028571h170.666667zM48.761905 305.980952V627.809524C48.761905 749.714286 146.285714 847.238095 268.190476 847.238095h570.514286c121.904762 0 219.428571-97.52381 219.428571-219.428571v-321.828572c0-121.904762-97.52381-219.428571-219.428571-219.428571H268.190476C146.285714 86.552381 48.761905 188.952381 48.761905 305.980952zM619.27619-79.238095H482.742857v117.028571h136.533333V-79.238095zM273.066667 520.533333c-14.628571 0-24.380952-9.752381-24.380953-24.380952v-214.552381c0-14.628571 9.752381-24.380952 24.380953-24.380952s24.380952 9.752381 24.380952 24.380952V496.152381c0 14.628571-9.752381 24.380952-24.380952 24.380952zM482.742857 281.6V598.552381c0 14.628571-9.752381 24.380952-24.380952 24.380952s-24.380952-9.752381-24.380953-24.380952v-316.952381c0-14.628571 9.752381-24.380952 24.380953-24.380952s24.380952 14.628571 24.380952 24.380952zM643.657143 257.219048c14.628571 0 24.380952 9.752381 24.380952 24.380952V520.533333c0 14.628571-9.752381 24.380952-24.380952 24.380953s-24.380952-9.752381-24.380953-24.380953v-238.933333c0-9.752381 14.628571-24.380952 24.380953-24.380952zM828.952381 257.219048c14.628571 0 24.380952 9.752381 24.380952 24.380952V657.066667c0 14.628571-9.752381 24.380952-24.380952 24.380952s-24.380952-9.752381-24.380952-24.380952v-375.466667c0-9.752381 14.628571-24.380952 24.380952-24.380952z"  horiz-adv-x="1106" />

    
    <glyph glyph-name="xiangmu-" unicode="&#58893;" d="M867.961905 725.333333h-121.904762l-68.266667 78.019048C629.028571 861.866667 551.009524 896 472.990476 896H195.047619C97.52381 896 14.628571 817.980952 4.87619 725.333333H0v-585.142857c0-146.285714 121.904762-268.190476 268.190476-268.190476h599.771429c146.285714 0 268.190476 121.904762 268.190476 268.190476V457.142857c0 146.285714-121.904762 268.190476-268.190476 268.190476zM195.047619 847.238095h277.942857c63.390476 0 126.780952-29.257143 165.790476-78.019047l39.009524-48.761905H48.761905C63.390476 793.6 121.904762 847.238095 195.047619 847.238095z m892.342857-707.047619c0-121.904762-97.52381-219.428571-219.428571-219.428571H268.190476C146.285714-79.238095 48.761905 18.285714 48.761905 140.190476v536.380953h819.2c121.904762 0 219.428571-97.52381 219.428571-219.428572v-316.952381zM336.457143 427.885714H234.057143c-14.628571 0-24.380952-9.752381-24.380953-24.380952s9.752381-24.380952 24.380953-24.380952H341.333333c14.628571 0 24.380952 9.752381 24.380953 24.380952s-14.628571 24.380952-29.257143 24.380952zM911.847619 427.885714H453.485714c-14.628571 0-24.380952-9.752381-24.380952-24.380952s9.752381-24.380952 24.380952-24.380952h458.361905c14.628571 0 24.380952 9.752381 24.380952 24.380952s-9.752381 24.380952-24.380952 24.380952zM336.457143 184.07619H234.057143c-14.628571 0-24.380952-9.752381-24.380953-24.380952s9.752381-24.380952 24.380953-24.380952H341.333333c14.628571 0 24.380952 9.752381 24.380953 24.380952s-14.628571 24.380952-29.257143 24.380952zM911.847619 184.07619H453.485714c-14.628571 0-24.380952-9.752381-24.380952-24.380952s9.752381-24.380952 24.380952-24.380952h458.361905c14.628571 0 24.380952 9.752381 24.380952 24.380952s-9.752381 24.380952-24.380952 24.380952z"  horiz-adv-x="1136" />

    
    <glyph glyph-name="danchuangguanbi-" unicode="&#58894;" d="M512 896C230.4 896 0 665.6 0 384s230.4-512 512-512 512 230.4 512 512S793.6 896 512 896z m0-972.8c-256 0-460.8 204.8-460.8 460.8s204.8 460.8 460.8 460.8 460.8-204.8 460.8-460.8-204.8-460.8-460.8-460.8zM737.28 609.28c-10.24 10.24-25.6 10.24-35.84 0L512 419.84 327.68 609.28c-10.24 10.24-25.6 10.24-35.84 0s-10.24-25.6 0-35.84L476.16 384l-184.32-184.32c-10.24-10.24-10.24-25.6 0-35.84 5.12-5.12 10.24-5.12 20.48-5.12s15.36 0 20.48 5.12l184.32 184.32 184.32-184.32c5.12-5.12 10.24-5.12 20.48-5.12s15.36 0 20.48 5.12c10.24 10.24 10.24 25.6 0 35.84L547.84 384l184.32 184.32c10.24 10.24 10.24 30.72 5.12 40.96z"  horiz-adv-x="1024" />

    
    <glyph glyph-name="zhankai-" unicode="&#58895;" d="M849.170732-128L0 721.170732 174.829268 896l674.341464-649.365854L1498.536585 896l174.829269-174.829268z"  horiz-adv-x="1673" />

    
    <glyph glyph-name="shouqi-" unicode="&#58896;" d="M1498.536585-128L849.170732 546.341463 174.829268-128 0 46.829268 849.170732 896l824.195122-849.170732z"  horiz-adv-x="1673" />

    
    <glyph glyph-name="xuanzeriqi-" unicode="&#58897;" d="M934.054054 771.459459h-124.54054V861.405405c0 20.756757-13.837838 34.594595-34.594595 34.594595s-34.594595-13.837838-34.594595-34.594595v-89.945946H366.702703V861.405405c0 20.756757-13.837838 34.594595-34.594595 34.594595s-34.594595-13.837838-34.594594-34.594595v-89.945946H172.972973C76.108108 771.459459 0 688.432432 0 598.486486v-553.513513c0-96.864865 76.108108-172.972973 172.972973-172.972973h761.081081c96.864865 0 172.972973 76.108108 172.972973 172.972973v553.513513c0 89.945946-76.108108 172.972973-172.972973 172.972973z m-761.081081-69.189189h124.540541v-48.432432c0-20.756757 13.837838-34.594595 34.594594-34.594595s34.594595 13.837838 34.594595 34.594595v48.432432h373.621621v-48.432432c0-20.756757 13.837838-34.594595 34.594595-34.594595s34.594595 13.837838 34.594595 34.594595v48.432432h124.54054c55.351351 0 103.783784-48.432432 103.783784-103.783784v-76.108108H69.189189V598.486486c0 55.351351 48.432432 103.783784 103.783784 103.783784z m761.081081-761.081081h-761.081081c-55.351351 0-103.783784 48.432432-103.783784 103.783784V453.189189h968.648649v-408.216216c0-62.27027-48.432432-103.783784-103.783784-103.783784zM325.189189 328.648649H228.324324c-20.756757 0-34.594595-20.756757-34.594594-34.594595s13.837838-34.594595 34.594594-34.594595h96.864865c20.756757 0 34.594595 13.837838 34.594595 34.594595s-13.837838 34.594595-34.594595 34.594595zM601.945946 328.648649H505.081081c-20.756757 0-34.594595-20.756757-34.594595-34.594595s13.837838-34.594595 34.594595-34.594595h96.864865c20.756757 0 34.594595 13.837838 34.594595 34.594595s-13.837838 34.594595-34.594595 34.594595zM878.702703 328.648649h-96.864865c-20.756757 0-34.594595-13.837838-34.594595-34.594595s13.837838-34.594595 34.594595-34.594595h96.864865c20.756757 0 34.594595 13.837838 34.594594 34.594595s-13.837838 34.594595-34.594594 34.594595zM325.189189 141.837838H228.324324c-20.756757 0-34.594595-13.837838-34.594594-34.594595s13.837838-34.594595 34.594594-34.594594h96.864865c20.756757 0 34.594595 13.837838 34.594595 34.594594s-13.837838 34.594595-34.594595 34.594595zM601.945946 141.837838H505.081081c-20.756757 0-34.594595-13.837838-34.594595-34.594595s13.837838-34.594595 34.594595-34.594594h96.864865c20.756757 0 34.594595 13.837838 34.594595 34.594594s-13.837838 34.594595-34.594595 34.594595zM878.702703 141.837838h-96.864865c-20.756757 0-34.594595-13.837838-34.594595-34.594595s13.837838-34.594595 34.594595-34.594594h96.864865c20.756757 0 34.594595 13.837838 34.594594 34.594594s-13.837838 34.594595-34.594594 34.594595z"  horiz-adv-x="1107" />

    
    <glyph glyph-name="chaxun-" unicode="&#58898;" d="M1005.54955-35.747748L765.693694 194.882883c55.351351 73.801802 92.252252 166.054054 92.252252 267.531531C857.945946 702.27027 664.216216 896 433.585586 896S0 702.27027 0 462.414414s193.72973-433.585586 433.585586-433.585585c101.477477 0 193.72973 36.900901 267.531531 92.252252l239.855856-239.855856c9.225225-9.225225 18.45045-9.225225 36.900901-9.225225s27.675676 0 36.900901 9.225225c0 27.675676 0 64.576577-9.225225 83.027027zM92.252252 462.414414C92.252252 656.144144 239.855856 803.747748 433.585586 803.747748s341.333333-147.603604 341.333333-341.333334-156.828829-332.108108-341.333333-332.108108S92.252252 277.90991 92.252252 462.414414z"  horiz-adv-x="1024" />

    
    <glyph glyph-name="qingzhangshenqing-" unicode="&#58899;" d="M918.287305 896h-830.27027C60.34136 896 41.890909 877.54955 41.890909 849.873874v-922.522523c0-27.675676 18.45045-46.126126 46.126126-46.126126h359.783784c27.675676 0 46.126126 18.45045 46.126126 46.126126s-18.45045 46.126126-46.126126 46.126126H134.143161V803.747748h738.018018v-341.333334c0-27.675676 18.45045-46.126126 46.126126-46.126126s46.126126 27.675676 46.126127 46.126126V849.873874c0 27.675676-18.45045 46.126126-46.126127 46.126126zM918.287305 194.882883H743.008026V360.936937c0 27.675676-18.45045 46.126126-46.126126 46.126126s-46.126126-18.45045-46.126126-46.126126v-175.279279H484.70172c-27.675676 0-46.126126-18.45045-46.126126-46.126126s18.45045-46.126126 46.126126-46.126127h175.279279v-175.279279c0-27.675676 18.45045-46.126126 46.126126-46.126126s46.126126 18.45045 46.126126 46.126126v184.504505h175.27928c27.675676 0 46.126126 18.45045 46.126126 46.126126s-27.675676 46.126126-55.351352 46.126126z"  horiz-adv-x="1024" />

    
    <glyph glyph-name="shangchuan-" unicode="&#58900;" d="M1125.386139 247.128713c-30.415842 0-50.693069-20.277228-50.69307-50.693069v-223.049505H101.386139V196.435644c0 30.415842-20.277228 50.693069-50.69307 50.693069s-50.693069-20.277228-50.693069-50.693069v-273.742575c0-30.415842 20.277228-50.693069 50.693069-50.693069h1074.69307c30.415842 0 50.693069 20.277228 50.693069 50.693069V196.435644c0 30.415842-20.277228 50.693069-50.693069 50.693069zM324.435644 541.148515c10.138614 0 30.415842 0 40.554455 10.138614l172.356436 172.356435v-598.178217c0-30.415842 20.277228-50.693069 50.693069-50.69307s50.693069 20.277228 50.693069 50.69307V723.643564L811.089109 551.287129c20.277228-20.277228 50.693069-20.277228 70.970297 0s20.277228 50.693069 0 70.970297L628.594059 885.861386S618.455446 896 608.316832 896h-20.277228c-20.277228 0-30.415842-10.138614-40.554455-10.138614L294.019802 622.257426c-20.277228-20.277228-20.277228-50.693069 0-70.970297 10.138614-10.138614 20.277228-10.138614 30.415842-10.138614z"  horiz-adv-x="1176" />

    
    <glyph glyph-name="xiazai-" unicode="&#58901;" d="M1249.054945 288.351648c-33.758242 0-56.263736-22.505495-56.263736-56.263736v-247.560439H112.527473V232.087912c0 33.758242-22.505495 56.263736-56.263737 56.263736s-56.263736-22.505495-56.263736-56.263736v-303.824176c0-33.758242 22.505495-56.263736 56.263736-56.263736h1192.791209c33.758242 0 56.263736 22.505495 56.263736 56.263736V232.087912c0 33.758242-22.505495 56.263736-56.263736 56.263736zM607.648352 119.56044c0-11.252747 11.252747-11.252747 22.505494-11.252748h22.505495c22.505495-11.252747 33.758242 0 45.010989 11.252748l281.318681 281.318681c22.505495 22.505495 22.505495 56.263736 0 78.769231s-56.263736 22.505495-78.769231 0L708.923077 288.351648V839.736264c0 33.758242-22.505495 56.263736-56.263736 56.263736s-56.263736-22.505495-56.263737-56.263736v-551.384616L405.098901 479.648352c-22.505495 22.505495-56.263736 22.505495-78.769231 0s-22.505495-56.263736 0-78.769231l281.318682-281.318681z"  horiz-adv-x="1305" />

    
    <glyph glyph-name="qingzhang-" unicode="&#58902;" d="M940.218182-128H83.781818c-27.927273 0-46.545455 18.618182-46.545454 46.545455s18.618182 46.545455 46.545454 46.545454h856.436364c27.927273 0 46.545455-18.618182 46.545454-46.545454s-27.927273-46.545455-46.545454-46.545455zM940.218182-6.981818H83.781818c-27.927273 0-46.545455 18.618182-46.545454 46.545454V244.363636c0 55.854545 46.545455 93.090909 93.090909 93.090909h186.181818v65.163637c-74.472727 74.472727-111.709091 167.563636-93.090909 269.963636C242.036364 784.290909 335.127273 877.381818 446.836364 896c83.781818 18.618182 167.563636 0 232.727272-55.854545 74.472727-65.163636 111.709091-139.636364 111.709091-223.418182 0-74.472727-37.236364-158.254545-93.090909-204.8v-65.163637h186.181818c55.854545 0 93.090909-46.545455 93.090909-93.090909v-204.8c9.309091-37.236364-18.618182-55.854545-37.236363-55.854545zM130.327273 86.109091h763.345454V244.363636h-186.181818c-55.854545 0-93.090909 46.545455-93.090909 93.090909v65.163637c0 27.927273 9.309091 55.854545 27.927273 74.472727 37.236364 27.927273 55.854545 83.781818 55.854545 139.636364s-27.927273 111.709091-74.472727 148.945454c-37.236364 27.927273-93.090909 46.545455-158.254546 37.236364-74.472727-18.618182-130.327273-74.472727-139.636363-148.945455-18.618182-74.472727 9.309091-139.636364 55.854545-186.181818 18.618182-18.618182 37.236364-37.236364 37.236364-65.163636v-55.854546c0-55.854545-46.545455-93.090909-93.090909-93.090909H130.327273v-167.563636z"  horiz-adv-x="1024" />

    
    <glyph glyph-name="yidu-" unicode="&#58903;" d="M1044.48 87.04c0-10.24-10.24-30.72-10.24-40.96-10.24 0-20.48-10.24-40.96-10.24H51.2c-30.72 0-51.2 20.48-51.2 51.2 0 10.24 10.24 30.72 10.24 30.72 10.24 10.24 20.48 10.24 40.96 10.24h133.12V558.08C184.32 742.4 337.92 896 522.24 896 614.4 896 696.32 865.28 757.76 793.6c61.44-61.44 102.4-143.36 102.4-235.52v-419.84h133.12c30.72 0 51.2-20.48 51.2-51.2zM645.12-5.12c0-10.24 0-30.72-10.24-40.96-10.24-51.2-61.44-81.92-112.64-81.92-51.2 0-102.4 30.72-112.64 81.92-10.24 10.24-10.24 30.72-10.24 40.96h245.76z"  horiz-adv-x="1044" />

    
    <glyph glyph-name="youxiang-" unicode="&#58904;" d="M707.697778 192.853333H316.302222c-31.857778 0-56.888889 25.031111-56.888889 56.888889V518.257778c0 31.857778 25.031111 56.888889 56.888889 56.888889H705.422222c31.857778 0 56.888889-25.031111 56.888889-56.888889v-268.515556c2.275556-31.857778-25.031111-56.888889-54.613333-56.888889zM316.302222 552.391111c-18.204444 0-34.133333-15.928889-34.133333-34.133333v-268.515556c0-18.204444 15.928889-34.133333 34.133333-34.133333H705.422222c18.204444 0 34.133333 15.928889 34.133334 34.133333V518.257778c0 18.204444-15.928889 34.133333-34.133334 34.133333H316.302222zM512 320.284444c-2.275556 0-6.826667 0-9.102222 2.275556l-220.728889 220.728889c-4.551111 4.551111-4.551111 11.377778 0 15.928889s11.377778 4.551111 15.928889 0l213.902222-213.902222 213.902222 213.902222c4.551111 4.551111 11.377778 4.551111 15.928889 0s4.551111-11.377778 0-15.928889l-220.728889-220.728889c-2.275556-2.275556-6.826667-2.275556-9.102222-2.275556z"  horiz-adv-x="1024" />

    
    <glyph glyph-name="jishubiaozhun-" unicode="&#58905;" d="M694.044444 281.6h-364.088888c-31.857778 0-56.888889 25.031111-56.888889 56.888889v150.186667c0 31.857778 25.031111 56.888889 56.888889 56.888888h364.088888c31.857778 0 56.888889-25.031111 56.888889-56.888888v-150.186667c0-29.582222-25.031111-56.888889-56.888889-56.888889z m-364.088888 241.208889c-18.204444 0-34.133333-15.928889-34.133334-34.133333v-150.186667c0-18.204444 15.928889-34.133333 34.133334-34.133333h364.088888c18.204444 0 34.133333 15.928889 34.133334 34.133333v150.186667c0 18.204444-15.928889 34.133333-34.133334 34.133333h-364.088888zM673.564444 222.435556H350.435556c-6.826667 0-11.377778 4.551111-11.377778 11.377777s4.551111 11.377778 11.377778 11.377778h323.128888c6.826667 0 11.377778-4.551111 11.377778-11.377778s-4.551111-11.377778-11.377778-11.377777zM350.435556 281.6c-6.826667 0-11.377778 4.551111-11.377778 11.377778v93.297778c0 6.826667 4.551111 11.377778 11.377778 11.377777s11.377778-4.551111 11.377777-11.377777v-93.297778c0-4.551111-4.551111-11.377778-11.377777-11.377778zM673.564444 281.6c-6.826667 0-11.377778 4.551111-11.377777 11.377778v93.297778c0 6.826667 4.551111 11.377778 11.377777 11.377777s11.377778-4.551111 11.377778-11.377777v-93.297778c0-4.551111-4.551111-11.377778-11.377778-11.377778zM607.573333 281.6c-6.826667 0-11.377778 4.551111-11.377777 11.377778v63.715555c0 6.826667 4.551111 11.377778 11.377777 11.377778s11.377778-4.551111 11.377778-11.377778v-63.715555c0-4.551111-4.551111-11.377778-11.377778-11.377778zM543.857778 281.6c-6.826667 0-11.377778 4.551111-11.377778 11.377778v63.715555c0 6.826667 4.551111 11.377778 11.377778 11.377778s11.377778-4.551111 11.377778-11.377778v-63.715555c0-4.551111-4.551111-11.377778-11.377778-11.377778zM480.142222 281.6c-6.826667 0-11.377778 4.551111-11.377778 11.377778v63.715555c0 6.826667 4.551111 11.377778 11.377778 11.377778s11.377778-4.551111 11.377778-11.377778v-63.715555c0-4.551111-4.551111-11.377778-11.377778-11.377778zM416.426667 281.6c-6.826667 0-11.377778 4.551111-11.377778 11.377778v63.715555c0 6.826667 4.551111 11.377778 11.377778 11.377778s11.377778-4.551111 11.377777-11.377778v-63.715555c0-4.551111-6.826667-11.377778-11.377777-11.377778z"  horiz-adv-x="1024" />

    
    <glyph glyph-name="tongzhi-" unicode="&#58907;" d="M698.595556 220.16H325.404444c-27.306667 0-47.786667 22.755556-47.786666 47.786667 0 13.653333 4.551111 25.031111 13.653333 34.133333 9.102222 9.102222 20.48 13.653333 34.133333 13.653333h25.031112v136.533334c0 88.746667 72.817778 161.564444 161.564444 161.564444 43.235556 0 84.195556-15.928889 113.777778-47.786667 29.582222-29.582222 47.786667-70.542222 47.786666-113.777777v-136.533334h25.031112c27.306667 0 47.786667-22.755556 47.786666-47.786666 0-13.653333-4.551111-25.031111-13.653333-34.133334-9.102222-9.102222-22.755556-13.653333-34.133333-13.653333z m-373.191112 72.817778c-6.826667 0-13.653333-2.275556-18.204444-6.826667-4.551111-4.551111-6.826667-11.377778-6.826667-18.204444 0-13.653333 11.377778-25.031111 25.031111-25.031111h373.191112c6.826667 0 13.653333 2.275556 18.204444 6.826666 4.551111 4.551111 6.826667 11.377778 6.826667 18.204445 0 13.653333-11.377778 25.031111-25.031111 25.031111h-36.408889c-6.826667 0-11.377778 4.551111-11.377778 11.377778v147.911111c0 36.408889-13.653333 72.817778-40.96 97.848889-27.306667 27.306667-61.44 40.96-97.848889 40.96-77.368889 0-138.808889-63.715556-138.808889-138.808889V304.355556c0-6.826667-4.551111-11.377778-11.377778-11.377778h-36.408889zM512 154.168889c-43.235556 0-77.368889 34.133333-77.368889 77.368889 0 6.826667 4.551111 11.377778 11.377778 11.377778s11.377778-4.551111 11.377778-11.377778c0-29.582222 25.031111-54.613333 54.613333-54.613334 29.582222 0 54.613333 25.031111 54.613333 54.613334 0 6.826667 4.551111 11.377778 11.377778 11.377778s11.377778-4.551111 11.377778-11.377778c0-43.235556-34.133333-77.368889-77.368889-77.368889z"  horiz-adv-x="1024" />

    
    <glyph glyph-name="gonggao-" unicode="&#58908;" d="M687.217778 192.853333H336.782222c-31.857778 0-56.888889 25.031111-56.888889 56.888889v223.004445c0 31.857778 25.031111 56.888889 56.888889 56.888889h348.16c31.857778 0 56.888889-25.031111 56.888889-56.888889v-223.004445c2.275556-31.857778-25.031111-56.888889-54.613333-56.888889zM336.782222 506.88c-18.204444 0-34.133333-15.928889-34.133333-34.133333v-223.004445c0-18.204444 15.928889-34.133333 34.133333-34.133333h348.16c18.204444 0 34.133333 15.928889 34.133334 34.133333v223.004445c0 18.204444-15.928889 34.133333-34.133334 34.133333H336.782222zM382.293333 506.88c-4.551111 0-6.826667 2.275556-9.102222 4.551111-2.275556 4.551111-2.275556 11.377778 2.275556 15.928889l129.706666 84.195556c4.551111 2.275556 9.102222 2.275556 11.377778 0l129.706667-84.195556c4.551111-2.275556 6.826667-11.377778 2.275555-15.928889-2.275556-4.551111-11.377778-6.826667-15.928889-2.275555l-122.88 79.644444-120.604444-79.644444c-2.275556 0-4.551111-2.275556-6.826667-2.275556zM398.222222 361.244444m-29.582222 0a29.582222 29.582222 0 1 1 59.164444 0 29.582222 29.582222 0 1 1-59.164444 0ZM512 361.244444m-29.582222 0a29.582222 29.582222 0 1 1 59.164444 0 29.582222 29.582222 0 1 1-59.164444 0ZM625.777778 361.244444m-29.582222 0a29.582222 29.582222 0 1 1 59.164444 0 29.582222 29.582222 0 1 1-59.164444 0Z"  horiz-adv-x="1024" />

    
    <glyph glyph-name="shezhi-1" unicode="&#58909;" d="M512 124.586667c-20.48 0-43.235556 2.275556-65.991111 9.102222-4.551111 2.275556-9.102222 6.826667-9.102222 11.377778 2.275556 25.031111-9.102222 47.786667-29.582223 61.44-20.48 11.377778-47.786667 11.377778-65.991111-4.551111-4.551111-4.551111-11.377778-2.275556-15.928889 0-31.857778 31.857778-54.613333 72.817778-65.991111 116.053333-2.275556 4.551111 2.275556 11.377778 6.826667 13.653333 22.755556 9.102222 36.408889 31.857778 36.408889 54.613334 0 25.031111-13.653333 45.511111-36.408889 54.613333-4.551111 2.275556-9.102222 9.102222-6.826667 13.653333 11.377778 43.235556 34.133333 84.195556 65.991111 116.053334 4.551111 4.551111 11.377778 4.551111 15.928889 0 20.48-13.653333 45.511111-15.928889 65.991111-4.551112 20.48 11.377778 31.857778 36.408889 29.582223 61.44 0 4.551111 2.275556 11.377778 9.102222 11.377778 43.235556 11.377778 86.471111 11.377778 131.982222 0 4.551111-2.275556 9.102222-6.826667 9.102222-11.377778-2.275556-25.031111 9.102222-47.786667 29.582223-61.44s47.786667-11.377778 65.991111 4.551112c4.551111 4.551111 11.377778 2.275556 15.928889 0 31.857778-31.857778 54.613333-72.817778 65.991111-116.053334 2.275556-4.551111-2.275556-11.377778-6.826667-13.653333-22.755556-9.102222-36.408889-31.857778-36.408889-54.613333 0-25.031111 13.653333-45.511111 36.408889-54.613334 4.551111-2.275556 9.102222-9.102222 6.826667-13.653333-11.377778-43.235556-34.133333-84.195556-65.991111-116.053333-4.551111-4.551111-11.377778-4.551111-15.928889 0-20.48 13.653333-45.511111 15.928889-65.991111 4.551111-20.48-11.377778-31.857778-36.408889-29.582223-61.44 0-4.551111-2.275556-11.377778-9.102222-11.377778-22.755556-6.826667-45.511111-9.102222-65.991111-9.102222z m-50.062222 27.306666c34.133333-6.826667 65.991111-6.826667 102.4 0 0 29.582222 15.928889 56.888889 40.96 72.817778 25.031111 15.928889 56.888889 15.928889 84.195555 0 22.755556 25.031111 40.96 54.613333 50.062223 88.746667-25.031111 13.653333-40.96 40.96-40.96 72.817778 0 29.582222 15.928889 56.888889 40.96 72.817777-11.377778 31.857778-27.306667 63.715556-50.062223 88.746667-25.031111-13.653333-56.888889-15.928889-84.195555 0-25.031111 15.928889-40.96 43.235556-40.96 72.817778-34.133333 6.826667-68.266667 6.826667-102.4 0 0-29.582222-15.928889-56.888889-40.96-72.817778-25.031111-15.928889-56.888889-13.653333-84.195556 0-22.755556-25.031111-40.96-54.613333-50.062222-88.746667 25.031111-13.653333 40.96-40.96 40.96-72.817777s-15.928889-56.888889-40.96-72.817778c11.377778-31.857778 27.306667-63.715556 50.062222-88.746667 25.031111 13.653333 56.888889 15.928889 84.195556 0 25.031111-15.928889 40.96-43.235556 40.96-72.817778zM512 283.875556c-27.306667 0-52.337778 11.377778-70.542222 29.582222-25.031111 25.031111-34.133333 56.888889-27.306667 91.022222 6.826667 40.96 38.684444 72.817778 79.644445 79.644444 34.133333 6.826667 68.266667-4.551111 91.022222-27.306666s34.133333-56.888889 27.306666-91.022222c-6.826667-40.96-38.684444-72.817778-79.644444-79.644445-6.826667-2.275556-13.653333-2.275556-20.48-2.275555z m-15.928889 177.493333c-31.857778-6.826667-54.613333-29.582222-61.44-61.44-4.551111-27.306667 2.275556-52.337778 20.48-70.542222 18.204444-18.204444 45.511111-27.306667 70.542222-20.48 31.857778 6.826667 54.613333 29.582222 61.44 61.44 4.551111 27.306667-2.275556 52.337778-20.48 70.542222s-43.235556 25.031111-70.542222 20.48z"  horiz-adv-x="1024" />

    
    <glyph glyph-name="dian-" unicode="&#58906;" d="M512 384m-512 0a512 512 0 1 1 1024 0 512 512 0 1 1-1024 0Z"  horiz-adv-x="1024" />

    
    <glyph glyph-name="sandian-" unicode="&#58910;" d="M512 768m-128 0a128 128 0 1 1 256 0 128 128 0 1 1-256 0ZM512 384m-128 0a128 128 0 1 1 256 0 128 128 0 1 1-256 0ZM512 0m-128 0a128 128 0 1 1 256 0 128 128 0 1 1-256 0Z"  horiz-adv-x="1024" />

    
    <glyph glyph-name="quanguocheng" unicode="&#58936;" d="M1046.555066-10.713656l-112.77533 72.176211c-9.022026 4.511013-13.53304 4.511013-22.555066 0s-13.53304-13.53304-13.53304-18.044053V-6.202643h-157.885463c-76.687225 18.044053-130.819383 40.599119-135.330396 193.973568h85.709251c27.066079 0 45.110132 22.555066 45.110132 45.110132v108.264317c0 27.066079-22.555066 45.110132-45.110132 45.110133h-85.709251V467.453744h85.709251c27.066079 0 45.110132 22.555066 45.110132 45.110133V620.828194c0 27.066079-22.555066 45.110132-45.110132 45.110132h-85.709251V742.625551h9.022026c27.066079 0 45.110132 22.555066 45.110133 45.110132V850.889868c0 27.066079-22.555066 45.110132-45.110133 45.110132h-58.643171c-27.066079 0-45.110132-22.555066-45.110133-45.110132v-58.643172c0-27.066079 22.555066-45.110132 45.110133-45.110132h9.022026V670.449339h-85.709251c-27.066079 0-45.110132-22.555066-45.110132-45.110132v-108.264317c0-27.066079 22.555066-45.110132 45.110132-45.110132h85.709251v-76.687225h-85.709251c-27.066079 0-45.110132-22.555066-45.110132-45.110132v-108.264317c0-27.066079 22.555066-45.110132 45.110132-45.110132h85.709251c4.511013-103.753304 27.066079-157.885463 67.665198-193.973569H324.792952c-76.687225 18.044053-130.819383 40.599119-135.330397 193.973569h85.709251c27.066079 0 45.110132 22.555066 45.110132 45.110132v108.264317c0 27.066079-22.555066 45.110132-45.110132 45.110132H189.462555V467.453744h85.709251c27.066079 0 45.110132 22.555066 45.110132 45.110133V620.828194c0 27.066079-22.555066 45.110132-45.110132 45.110132H189.462555V742.625551h9.022026c27.066079 0 45.110132 22.555066 45.110133 45.110132V850.889868c0 27.066079-22.555066 45.110132-45.110133 45.110132H135.330396c-22.555066 0-45.110132-22.555066-45.110132-45.110132v-58.643172c0-27.066079 22.555066-45.110132 45.110132-45.110132h9.022027V670.449339H58.643172c-27.066079 0-45.110132-22.555066-45.110132-45.110132v-108.264317c0-27.066079 22.555066-45.110132 45.110132-45.110132h85.709251v-76.687225H58.643172c-27.066079 0-45.110132-22.555066-45.110132-45.110132v-108.264317c0-27.066079 22.555066-45.110132 45.110132-45.110132h85.709251c4.511013-112.77533 27.066079-171.418502 67.665198-202.995595H22.555066c-13.53304 0-22.555066-9.022026-22.555066-22.555066s9.022026-22.555066 22.555066-22.555066h875.136564v-49.621146c0-9.022026 4.511013-18.044053 13.53304-18.044053 4.511013 0 9.022026-4.511013 9.022026-4.511013 4.511013 0 9.022026 0 13.53304 4.511013l112.77533 72.176212c4.511013 4.511013 9.022026 9.022026 9.022027 18.044053s0 13.53304-9.022027 18.044053zM554.854626 792.246696V850.889868h58.643171v-58.643172h-58.643171z m-81.198238-279.682819V625.339207h221.039647v-108.264317l-221.039647-4.511013z m0-279.68282v112.775331h221.039647v-108.264318l-221.039647-4.511013zM135.330396 792.246696V850.889868h58.643172v-58.643172H135.330396zM54.132159 512.563877V625.339207h221.039647v-108.264317l-221.039647-4.511013z m0-279.68282v112.775331h221.039647v-108.264318l-221.039647-4.511013z m888.669603-293.215859v63.154185l49.621145-31.577092-49.621145-31.577093z"  horiz-adv-x="1060" />

    
    <glyph glyph-name="fawu" unicode="&#58937;" d="M1093.130802 100.995781l-393.181435 393.181434 51.848101 51.848101 25.924051-25.92405c12.962025-12.962025 30.244726-21.603376 47.527426-21.603376 17.2827 0 34.565401 8.64135 47.527426 21.603376l43.206751 43.206751c25.924051 25.924051 25.924051 69.130802 0 99.375527L704.270042 874.396624c-25.924051 25.924051-69.130802 25.924051-99.375527 0l-43.206751-43.206751c-25.924051-25.924051-25.924051-69.130802 0-99.375527l21.603375-21.603376-207.392405-211.71308-21.603375 21.603376c-25.924051 25.924051-69.130802 25.924051-99.375528 0l-43.206751-43.206751c-25.924051-25.924051-25.924051-69.130802 0-99.375528l211.71308-211.71308c12.962025-12.962025 30.244726-21.603376 47.527426-21.603375s34.565401 8.64135 47.527427 21.603375l43.206751 43.206751c25.924051 25.924051 25.924051 69.130802 0 99.375528l-21.603376 25.92405 51.848101 51.848102 393.181435-393.181435c12.962025-12.962025 34.565401-21.603376 51.848101-21.603376 21.603376 0 38.886076 8.64135 51.848102 21.603376 12.962025 12.962025 21.603376 34.565401 21.603375 51.848101 4.320675 21.603376-4.320675 43.206751-17.2827 56.168777zM596.253165 800.945148l43.206751 43.206751c4.320675 4.320675 12.962025 8.64135 17.2827 8.64135 8.64135 0 12.962025-4.320675 17.2827-8.64135l211.713081-211.71308c8.64135-8.64135 8.64135-25.924051 0-38.886076l-43.206751-43.206751c-8.64135-8.64135-25.924051-8.64135-38.886076 0l-211.713081 211.71308c-8.64135 12.962025-8.64135 30.244726 4.320676 38.886076z m-64.810127-557.367089l-43.206751-43.206751c-8.64135-8.64135-25.924051-8.64135-38.886076 0l-211.71308 211.71308c-8.64135 8.64135-8.64135 25.924051 0 38.886076l43.206751 43.206751c8.64135 0 17.2827 4.320675 21.603375 4.320675 8.64135 0 12.962025-4.320675 17.282701-8.64135l38.886076-38.886076 133.940928-133.940928 38.886076-38.886076c12.962025-8.64135 12.962025-25.924051 0-34.565401zM406.14346 468.253165L617.85654 679.966245l103.696203-103.696203-211.713081-211.71308-103.696202 103.696203z m656.742616-445.029536c-4.320675-4.320675-12.962025-8.64135-21.603376-8.641351s-17.2827 4.320675-21.603375 8.641351l-393.181435 393.181434 47.527426 47.527426 393.181435-393.181434c4.320675-4.320675 8.64135-12.962025 8.64135-21.603376s-8.64135-17.2827-12.962025-25.92405zM103.696203-7.021097h596.253164c12.962025 0 21.603376 8.64135 21.603376 21.603375s-8.64135 21.603376-21.603376 21.603376H103.696203c-12.962025 0-21.603376-8.64135-21.603376-21.603376s8.64135-21.603376 21.603376-21.603375zM782.042194-84.793249H21.603376c-12.962025 0-21.603376-12.962025-21.603376-21.603375s8.64135-21.603376 21.603376-21.603376h760.438818c12.962025 0 21.603376 8.64135 21.603376 21.603376s-8.64135 21.603376-21.603376 21.603375z"  horiz-adv-x="1114" />

    
    <glyph glyph-name="tuichu" unicode="&#58945;" d="M605.090909-34.909091H93.090909V802.909091h512c27.927273 0 46.545455 18.618182 46.545455 46.545454S633.018182 896 605.090909 896h-558.545454C18.618182 896 0 877.381818 0 849.454545v-930.90909c0-27.927273 18.618182-46.545455 46.545455-46.545455h558.545454c27.927273 0 46.545455 18.618182 46.545455 46.545455s-18.618182 46.545455-46.545455 46.545454zM1024 365.381818c9.309091 9.309091 9.309091 27.927273 0 37.236364 0 9.309091-9.309091 9.309091-9.309091 18.618182L809.890909 626.036364c-18.618182 18.618182-46.545455 18.618182-65.163636 0s-18.618182-46.545455 0-65.163637L875.054545 430.545455H325.818182c-27.927273 0-46.545455-18.618182-46.545455-46.545455s18.618182-46.545455 46.545455-46.545455h539.927273L735.418182 207.127273c-18.618182-18.618182-18.618182-46.545455 0-65.163637 9.309091-9.309091 18.618182-9.309091 37.236363-9.309091s27.927273 0 37.236364 9.309091l204.8 204.8c0 9.309091 0 18.618182 9.309091 18.618182z"  horiz-adv-x="1033" />

    
    <glyph glyph-name="daochu_" unicode="&#58946;" d="M930.909091 356.072727c-27.927273 0-46.545455-27.927273-46.545455-46.545454V-34.909091H139.636364V802.909091h316.509091c27.927273 0 46.545455 18.618182 46.545454 46.545454S484.072727 896 456.145455 896H93.090909C65.163636 896 46.545455 877.381818 46.545455 849.454545v-930.90909c0-27.927273 18.618182-46.545455 46.545454-46.545455h837.818182c27.927273 0 46.545455 18.618182 46.545454 46.545455V309.527273c0 18.618182-18.618182 46.545455-46.545454 46.545454zM819.2 672.581818H307.2c-27.927273 0-46.545455-18.618182-46.545455-46.545454s18.618182-46.545455 46.545455-46.545455h512L679.563636 449.163636c-18.618182-18.618182-18.618182-46.545455 0-65.163636 9.309091-9.309091 18.618182-9.309091 37.236364-9.309091s27.927273 0 37.236364 9.309091l214.109091 214.109091s9.309091 9.309091 9.30909 18.618182v27.927272c0 9.309091-9.309091 9.309091-9.30909 18.618182L744.727273 877.381818C726.109091 896 698.181818 896 679.563636 877.381818s-18.618182-46.545455 0-65.163636l139.636364-139.636364z"  horiz-adv-x="1024" />

    
    <glyph glyph-name="exit" unicode="&#58947;" d="M575.146667 88.746667c0-71.68-58.026667-131.413333-131.413334-131.413334H187.733333c-71.68 0-131.413333 58.026667-131.413333 131.413334V675.84c0 71.68 58.026667 131.413333 131.413333 131.413333h256c71.68 0 131.413333-58.026667 131.413334-131.413333 0-11.946667-10.24-22.186667-22.186667-22.186667-11.946667 0-22.186667 10.24-22.186667 22.186667 0 47.786667-39.253333 87.04-87.04 87.04H187.733333c-47.786667 0-87.04-39.253333-87.04-87.04v-587.093333c0-47.786667 39.253333-87.04 87.04-87.04h256c47.786667 0 87.04 39.253333 87.04 87.04 0 11.946667 10.24 22.186667 22.186667 22.186666 11.946667 0 22.186667-10.24 22.186667-22.186666z m356.693333 360.106666L754.346667 624.64c-8.533333 8.533333-22.186667 8.533333-30.72 0s-8.533333-22.186667 0-30.72L899.413333 418.133333c3.413333-3.413333 6.826667-8.533333 8.533334-13.653333H315.733333c-11.946667 0-22.186667-10.24-22.186666-22.186667s10.24-22.186667 22.186666-22.186666h593.92c-1.706667-5.12-5.12-8.533333-8.533333-13.653334L723.626667 170.666667c-8.533333-8.533333-8.533333-22.186667 0-30.72 5.12-5.12 10.24-6.826667 15.36-6.826667 5.12 0 11.946667 1.706667 15.36 6.826667L931.84 315.733333c35.84 35.84 35.84 95.573333 0 133.12z"  horiz-adv-x="1024" />

    
    <glyph glyph-name="zhiwei-" unicode="&#58923;" d="M815.786667 423.253333L638.293333 667.306667c1.706667 8.533333 5.12 17.066667 10.24 23.893333l80.213334 110.933333c11.946667 15.36 11.946667 35.84 3.413333 52.906667-8.533333 17.066667-25.6 27.306667-44.373333 27.306667H320.853333c-18.773333 0-35.84-10.24-44.373333-27.306667s-6.826667-37.546667 3.413333-52.906667l80.213334-110.933333c11.946667-17.066667 17.066667-40.96 10.24-61.44L215.04 145.066667c-13.653333-42.666667 3.413333-90.453333 40.96-114.346667L448.853333-93.866667c17.066667-10.24 35.84-15.36 54.613334-15.36s37.546667 5.12 54.613333 15.36l194.56 126.293334c37.546667 23.893333 54.613333 71.68 40.96 114.346666l-18.773333 58.026667 42.666666 61.44c34.133333 46.08 32.426667 110.933333-1.706666 157.013333z m-88.746667-353.28l-194.56-124.586666c-17.066667-11.946667-39.253333-11.946667-58.026667 0l-192.853333 124.586666c-20.48 13.653333-29.013333 37.546667-22.186667 59.733334l155.306667 486.4c11.946667 34.133333 5.12 73.386667-17.066667 104.106666l-80.213333 110.933334 1.706667 5.12h366.933333l1.706667-5.12-80.213334-110.933334c-22.186667-29.013333-27.306667-68.266667-17.066666-104.106666l155.306666-484.693334c10.24-23.893333 1.706667-47.786667-18.773333-61.44z m51.2 221.866667l-22.186667-30.72-92.16 290.133333 114.346667-155.306666c22.186667-30.72 22.186667-73.386667 0-104.106667zM505.173333 278.186667c-13.653333 0-23.893333-10.24-23.893333-23.893334v-122.88c0-13.653333 10.24-23.893333 23.893333-23.893333s23.893333 10.24 23.893334 23.893333v122.88c0 13.653333-11.946667 23.893333-23.893334 23.893334zM505.173333 687.786667c-13.653333 0-23.893333-10.24-23.893333-23.893334v-278.186666c0-13.653333 10.24-23.893333 23.893333-23.893334s23.893333 10.24 23.893334 23.893334V663.893333c0 13.653333-11.946667 23.893333-23.893334 23.893334z"  horiz-adv-x="1024" />

    
    <glyph glyph-name="quanping" unicode="&#58950;" d="M616.106667 501.76c8.533333-8.533333 22.186667-8.533333 30.72 0L955.733333 807.253333c1.706667-3.413333 1.706667-8.533333 1.706667-11.946666v-226.986667c0-11.946667 10.24-22.186667 22.186667-22.186667s22.186667 10.24 22.186666 22.186667V795.306667c0 23.893333-10.24 46.08-25.6 61.44-15.36 15.36-37.546667 25.6-61.44 25.6H682.666667c-11.946667 0-22.186667-10.24-22.186667-22.186667s10.24-22.186667 22.186667-22.186667h230.4c3.413333 0 8.533333 0 11.946666-1.706666L614.4 532.48c-8.533333-8.533333-8.533333-22.186667 1.706667-30.72zM85.333333 837.973333c3.413333 1.706667 6.826667 1.706667 10.24 1.706667h230.4c11.946667 0 22.186667 10.24 22.186667 22.186667 0 11.946667-10.24 22.186667-22.186667 22.186666H95.573333C73.386667 884.053333 51.2 875.52 34.133333 858.453333S8.533333 819.2 8.533333 795.306667v-226.986667c0-11.946667 10.24-22.186667 22.186667-22.186667 11.946667 0 22.186667 10.24 22.186667 22.186667L51.2 795.306667c0 5.12 1.706667 8.533333 1.706667 13.653333l310.613333-307.2c8.533333-8.533333 22.186667-8.533333 30.72 0s8.533333 22.186667 0 30.72L85.333333 837.973333zM1001.813333 206.506667c0 11.946667-10.24 22.186667-22.186666 22.186666-11.946667 0-22.186667-10.24-22.186667-22.186666v-226.986667c0-5.12 0-8.533333-1.706667-11.946667L645.12 271.36c-8.533333 8.533333-22.186667 8.533333-30.72 0s-8.533333-22.186667 0-30.72l310.613333-303.786667c-3.413333-1.706667-6.826667-1.706667-10.24-1.706666H684.373333c-11.946667 0-22.186667-10.24-22.186666-22.186667 0-11.946667 10.24-22.186667 22.186666-22.186667h230.4c18.773333 0 37.546667 6.826667 51.2 17.066667 3.413333 3.413333 6.826667 5.12 10.24 8.533333 3.413333 3.413333 5.12 6.826667 8.533334 10.24 11.946667 15.36 18.773333 34.133333 18.773333 52.906667l-1.706667 226.986667zM394.24 273.066667c-8.533333 8.533333-22.186667 8.533333-30.72 0l-308.906667-307.2c-1.706667 3.413333-1.706667 8.533333-1.706666 11.946666L51.2 204.8c0 11.946667-10.24 22.186667-22.186667 22.186667-11.946667 0-22.186667-10.24-22.186666-22.186667l1.706666-226.986667c0-17.066667 5.12-34.133333 13.653334-47.786666 3.413333-5.12 6.826667-10.24 11.946666-15.36 5.12-5.12 10.24-8.533333 17.066667-11.946667 13.653333-8.533333 29.013333-13.653333 46.08-13.653333l230.4 1.706666c11.946667 0 22.186667 10.24 22.186667 22.186667 0 11.946667-10.24 22.186667-22.186667 22.186667l-230.4-1.706667c-3.413333 0-6.826667 0-10.24 1.706667l308.906667 307.2c6.826667 6.826667 6.826667 20.48-1.706667 30.72 0-1.706667 0 0 0 0z"  horiz-adv-x="1024" />

    


  </font>
</defs>
</svg>
