<?xml version="1.0" standalone="no"?>
<!DOCTYPE svg PUBLIC "-//W3C//DTD SVG 1.1//EN" "http://www.w3.org/Graphics/SVG/1.1/DTD/svg11.dtd" >
<!--
2013-9-30: Created.
-->
<svg>
<metadata>
Created by iconfont
</metadata>
<defs>

<font id="iconfont" horiz-adv-x="1024" >
  <font-face
    font-family="iconfont"
    font-weight="500"
    font-stretch="normal"
    units-per-em="1024"
    ascent="896"
    descent="-128"
  />
    <missing-glyph />
    
    <glyph glyph-name="zhanghao-" unicode="&#58905;" d="M267.377778 651.377778a244.622222 244.622222 0 1 1 489.244444 0 244.622222 244.622222 0 1 1-489.244444 0ZM785.066667 349.866667H238.933333C108.088889 349.866667 0 241.777778 0 110.933333 0-19.911111 108.088889-128 238.933333-128h546.133334c130.844444 0 238.933333 108.088889 238.933333 238.933333 0 130.844444-108.088889 238.933333-238.933333 238.933334z m-133.688889-201.955556c-39.822222-39.822222-91.022222-56.888889-139.377778-56.888889-51.2 0-102.4 19.911111-142.222222 56.888889-11.377778 11.377778-11.377778 28.444444 0 39.822222s28.444444 11.377778 39.822222 0c54.044444-54.044444 145.066667-54.044444 201.955556 0 11.377778 11.377778 28.444444 11.377778 39.822222 0s11.377778-28.444444 0-39.822222z"  horiz-adv-x="1024" />

    
    <glyph glyph-name="mima-" unicode="&#58906;" d="M691.2 540.444444H332.8c-14.222222 0-28.444444 0-39.822222-2.844444V620.088889C292.977778 739.555556 392.533333 839.111111 512 839.111111s219.022222-99.555556 219.022222-219.022222c0-17.066667 11.377778-28.444444 28.444445-28.444445s28.444444 11.377778 28.444444 28.444445C787.911111 770.844444 662.755556 896 512 896c-150.755556 0-275.911111-125.155556-275.911111-275.911111V526.222222C99.555556 483.555556 0 355.555556 0 204.8 0 22.755556 150.755556-128 332.8-128h355.555556C873.244444-128 1024 22.755556 1024 204.8c0 184.888889-150.755556 335.644444-332.8 335.644444z m-68.266667-375.466666H483.555556v-85.333334c0-17.066667-11.377778-28.444444-28.444445-28.444444s-28.444444 11.377778-28.444444 28.444444v227.555556c0 17.066667 11.377778 28.444444 28.444444 28.444444s28.444444-11.377778 28.444445-28.444444v-85.333333h139.377777c17.066667 0 28.444444-11.377778 28.444445-28.444445s-14.222222-28.444444-28.444445-28.444444z"  horiz-adv-x="1024" />

    
    <glyph glyph-name="gongzuotai" unicode="&#58907;" d="M791.893333 698.026667c38.684444 0 68.266667-29.582222 68.266667-68.266667v-375.466667c0-38.684444-29.582222-68.266667-68.266667-68.266666H232.106667c-38.684444 0-68.266667 29.582222-68.266667 68.266666V629.76c0 38.684444 29.582222 68.266667 68.266667 68.266667h559.786666m0 45.511111H232.106667c-63.715556 0-113.777778-50.062222-113.777778-113.777778v-375.466667c0-63.715556 50.062222-113.777778 113.777778-113.777777h562.062222c63.715556 0 113.777778 50.062222 113.777778 113.777777V629.76c-2.275556 63.715556-52.337778 113.777778-116.053334 113.777778zM304.924444 281.6c-13.653333 0-22.755556 9.102222-22.755555 22.755556v159.288888c0 13.653333 9.102222 22.755556 22.755555 22.755556s22.755556-9.102222 22.755556-22.755556v-159.288888c0-11.377778-11.377778-22.755556-22.755556-22.755556zM443.733333 281.6c-13.653333 0-22.755556 9.102222-22.755555 22.755556V541.013333c0 13.653333 9.102222 22.755556 22.755555 22.755556s22.755556-9.102222 22.755556-22.755556V304.355556c0-11.377778-11.377778-22.755556-22.755556-22.755556zM580.266667 281.6c-13.653333 0-22.755556 9.102222-22.755556 22.755556v177.493333c0 13.653333 9.102222 22.755556 22.755556 22.755555s22.755556-9.102222 22.755555-22.755555V304.355556c0-11.377778-9.102222-22.755556-22.755555-22.755556zM719.075556 281.6c-13.653333 0-22.755556 9.102222-22.755556 22.755556V584.248889c0 13.653333 9.102222 22.755556 22.755556 22.755555s22.755556-9.102222 22.755555-22.755555V304.355556c0-11.377778-9.102222-22.755556-22.755555-22.755556zM443.733333-7.395556c-13.653333 0-22.755556 9.102222-22.755555 22.755556v125.155556c0 13.653333 9.102222 22.755556 22.755555 22.755555s22.755556-9.102222 22.755556-22.755555v-125.155556c0-13.653333-11.377778-22.755556-22.755556-22.755556zM580.266667-7.395556c-13.653333 0-22.755556 9.102222-22.755556 22.755556v125.155556c0 13.653333 9.102222 22.755556 22.755556 22.755555s22.755556-9.102222 22.755555-22.755555v-125.155556c0-13.653333-9.102222-22.755556-22.755555-22.755556zM871.537778-7.395556H152.462222c-13.653333 0-22.755556 9.102222-22.755555 22.755556s9.102222 22.755556 22.755555 22.755556h719.075556c13.653333 0 22.755556-9.102222 22.755555-22.755556s-9.102222-22.755556-22.755555-22.755556z"  horiz-adv-x="1024" />

    
    <glyph glyph-name="xiangmu" unicode="&#58909;" d="M821.475556 588.8c43.235556 0 79.644444-36.408889 79.644444-79.644444v-398.222223c0-43.235556-36.408889-79.644444-79.644444-79.644444H202.524444c-43.235556 0-79.644444 36.408889-79.644444 79.644444v477.866667h698.595556m0 34.133333h-705.422223c-15.928889 0-27.306667-11.377778-27.306666-27.306666v-484.693334c0-63.715556 50.062222-113.777778 113.777777-113.777777h618.951112c63.715556 0 113.777778 50.062222 113.777777 113.777777V509.155556c0 63.715556-50.062222 113.777778-113.777777 113.777777zM436.906667 693.475556c45.511111 0 88.746667-20.48 118.328889-54.613334l9.102222-11.377778H127.431111c13.653333 38.684444 52.337778 65.991111 95.573333 65.991112h213.902223m0 34.133333H223.004444c-75.093333 0-134.257778-61.44-134.257777-134.257778h552.96l-56.888889 68.266667c-38.684444 40.96-91.022222 65.991111-147.911111 65.991111zM332.231111 374.897778H250.311111c-9.102222 0-18.204444 6.826667-18.204444 18.204444s6.826667 18.204444 18.204444 18.204445h81.92c9.102222 0 18.204444-6.826667 18.204445-18.204445s-9.102222-18.204444-18.204445-18.204444zM780.515556 374.897778H420.977778c-9.102222 0-18.204444 6.826667-18.204445 18.204444s6.826667 18.204444 18.204445 18.204445h359.537778c9.102222 0 18.204444-6.826667 18.204444-18.204445s-9.102222-18.204444-18.204444-18.204444zM332.231111 186.026667H250.311111c-9.102222 0-18.204444 6.826667-18.204444 18.204444s6.826667 18.204444 18.204444 18.204445h81.92c9.102222 0 18.204444-6.826667 18.204445-18.204445s-9.102222-18.204444-18.204445-18.204444zM780.515556 186.026667H420.977778c-9.102222 0-18.204444 6.826667-18.204445 18.204444s6.826667 18.204444 18.204445 18.204445h359.537778c9.102222 0 18.204444-6.826667 18.204444-18.204445s-9.102222-18.204444-18.204444-18.204444z"  horiz-adv-x="1024" />

    
    <glyph glyph-name="gengduo" unicode="&#58911;" d="M1442.909091 802.909091H46.545455c-27.927273 0-46.545455 18.618182-46.545455 46.545454s18.618182 46.545455 46.545455 46.545455h1396.363636c27.927273 0 46.545455-18.618182 46.545454-46.545455s-18.618182-46.545455-46.545454-46.545454zM1442.909091 337.454545H46.545455c-27.927273 0-46.545455 18.618182-46.545455 46.545455s18.618182 46.545455 46.545455 46.545455h1396.363636c27.927273 0 46.545455-18.618182 46.545454-46.545455s-18.618182-46.545455-46.545454-46.545455zM1442.909091-128H46.545455c-27.927273 0-46.545455 18.618182-46.545455 46.545455s18.618182 46.545455 46.545455 46.545454h1396.363636c27.927273 0 46.545455-18.618182 46.545454-46.545454s-18.618182-46.545455-46.545454-46.545455z"  horiz-adv-x="1489" />

    
    <glyph glyph-name="shujuliebiao1" unicode="&#58910;" d="M928.426667 757.191111H95.573333c-9.102222 0-18.204444-6.826667-18.204444-18.204444 0-9.102222 6.826667-18.204444 18.204444-18.204445h88.746667v-402.773333c0-63.715556 50.062222-113.777778 113.777778-113.777778h63.715555v-163.84H186.595556c-9.102222 0-18.204444-6.826667-18.204445-18.204444s6.826667-18.204444 18.204445-18.204445h650.808888c9.102222 0 18.204444 6.826667 18.204445 18.204445s-6.826667 18.204444-18.204445 18.204444h-175.217777v163.84h63.715555c63.715556 0 113.777778 50.062222 113.777778 113.777778V723.057778h88.746667c9.102222 0 18.204444 6.826667 18.204444 18.204444-2.275556 9.102222-9.102222 15.928889-18.204444 15.928889zM628.053333 44.942222H395.946667v163.84h229.831111v-163.84z m175.217778 275.342222c0-43.235556-36.408889-79.644444-79.644444-79.644444H300.373333c-43.235556 0-79.644444 36.408889-79.644444 79.644444V720.782222h582.542222v-400.497778zM302.648889 374.897778l77.368889 106.951111 113.777778-145.635556 159.288888 250.311111 68.266667-91.022222c6.826667-6.826667 15.928889-9.102222 25.031111-2.275555 6.826667 4.551111 9.102222 15.928889 2.275556 25.031111L650.808889 645.688889l-159.288889-250.311111-111.502222 143.36-104.675556-143.36c-4.551111-6.826667-4.551111-18.204444 4.551111-22.755556 6.826667-6.826667 18.204444-4.551111 22.755556 2.275556z"  horiz-adv-x="1024" />

    
    <glyph glyph-name="qingzhangshenpi" unicode="&#58912;" d="M102.4-25.6h821.76v-51.2H102.4zM376.32 358.4v53.76c0 15.36-7.68 28.16-17.92 35.84-56.32 51.2-87.04 128-71.68 212.48 17.92 89.6 87.04 161.28 176.64 179.2 145.92 28.16 273.92-81.92 273.92-222.72 0-66.56-28.16-125.44-71.68-166.4-10.24-10.24-17.92-23.04-17.92-35.84V358.4c0-25.6 20.48-46.08 46.08-46.08h179.2c25.6 0 46.08-20.48 46.08-46.08v-197.12H102.4v197.12c0 25.6 20.48 46.08 46.08 46.08h179.2c25.6-2.56 48.64 17.92 48.64 46.08z"  horiz-adv-x="1024" />

    
    <glyph glyph-name="xiazaihetong" unicode="&#58914;" d="M883.2 458.24v17.92C883.2 637.44 752.64 768 591.36 768c-115.2 0-215.04-69.12-263.68-166.4-23.04 17.92-51.2 28.16-81.92 28.16-74.24 0-135.68-61.44-135.68-135.68 0-12.8 2.56-28.16 5.12-40.96C56.32 419.84 17.92 355.84 17.92 284.16c0-107.52 87.04-194.56 194.56-197.12H309.76l-61.44 74.24c-25.6 30.72-33.28 71.68-17.92 104.96 15.36 33.28 51.2 56.32 92.16 56.32h43.52v110.08c0 64 51.2 117.76 117.76 117.76h40.96c64 0 117.76-51.2 117.76-117.76v-110.08h43.52c40.96 0 76.8-20.48 92.16-56.32 15.36-33.28 10.24-74.24-17.92-104.96l-61.44-74.24H803.84c107.52 0 192 87.04 192 192 7.68 81.92-43.52 151.04-112.64 179.2zM688.64 243.2H563.2V435.2c0 20.48-15.36 35.84-35.84 35.84H486.4c-20.48 0-35.84-15.36-35.84-35.84v-192h-125.44c-20.48 0-25.6-12.8-12.8-28.16l171.52-204.8c5.12-7.68 15.36-10.24 23.04-10.24s15.36 2.56 23.04 10.24l171.52 204.8c12.8 15.36 7.68 28.16-12.8 28.16z"  horiz-adv-x="1024" />

    
    <glyph glyph-name="fushuziliao" unicode="&#58916;" d="M837.12 688.64v-343.04c0-12.8-15.36-17.92-23.04-10.24l-58.88 64c-5.12 5.12-15.36 5.12-20.48 0l-58.88-64c-7.68-10.24-23.04-2.56-23.04 10.24V691.2c0 10.24-10.24 17.92-20.48 12.8-56.32-28.16-89.6-74.24-104.96-102.4-5.12-10.24-17.92-10.24-25.6 0-23.04 43.52-87.04 130.56-220.16 130.56-163.84 0-222.72-133.12-230.4-153.6v-504.32c0-12.8 17.92-20.48 25.6-7.68 33.28 46.08 97.28 112.64 204.8 112.64 122.88 0 192-89.6 217.6-133.12 5.12-10.24 17.92-10.24 23.04 0 25.6 43.52 89.6 133.12 220.16 133.12 110.08 0 174.08-64 204.8-110.08 7.68-10.24 25.6-5.12 25.6 7.68V568.32v5.12c-5.12 15.36-40.96 87.04-115.2 128-10.24 5.12-20.48-2.56-20.48-12.8z m-186.88-378.88z m186.88 0zM837.12 309.76zM650.24 309.76z"  horiz-adv-x="1024" />

    
    <glyph glyph-name="yijianwenjian" unicode="&#58918;" d="M632.32 74.24H296.96V634.88h-76.8c-20.48 0-35.84-15.36-35.84-35.84v-604.16c0-20.48 15.36-35.84 35.84-35.84h412.16c20.48 0 35.84 15.36 35.84 35.84v43.52c-2.56 20.48-17.92 35.84-35.84 35.84zM698.88 663.04V806.4H381.44c-20.48 0-35.84-15.36-35.84-35.84v-645.12h458.24c20.48 0 35.84 15.36 35.84 35.84V663.04h-140.8zM834.56 714.24l-87.04 84.48-5.12 7.68v-99.84h97.28z"  horiz-adv-x="1024" />

    
    <glyph glyph-name="sousuo" unicode="&#58919;" d="M1024-74.307116l-253.123596 253.123595c65.198502 76.70412 103.550562 172.58427 103.550562 279.970038C874.426966 700.404494 678.831461 896 437.213483 896S0 700.404494 0 458.786517s195.595506-437.213483 437.213483-437.213483c107.385768 0 203.265918 38.35206 279.970038 103.550562l253.123595-253.123596 53.692884 53.692884z m-586.786517 172.58427c-199.430712 0-360.509363 161.078652-360.509363 360.509363S237.782772 819.29588 437.213483 819.29588s360.509363-161.078652 360.509363-360.509363-161.078652-360.509363-360.509363-360.509363z"  horiz-adv-x="1024" />

    
    <glyph glyph-name="jiantou-" unicode="&#58923;" d="M512 230.4c-7.68 0-12.8 2.56-17.92 7.68l-256 256c-10.24 10.24-10.24 25.6 0 35.84 10.24 10.24 25.6 10.24 35.84 0l238.08-238.08 238.08 238.08c10.24 10.24 25.6 10.24 35.84 0 10.24-10.24 10.24-25.6 0-35.84l-256-256c-5.12-5.12-10.24-7.68-17.92-7.68z"  horiz-adv-x="1024" />

    
    <glyph glyph-name="jiantou-1" unicode="&#58924;" d="M512 104.727273c-13.963636 0-23.272727 4.654545-32.581818 13.963636l-465.454546 465.454546c-18.618182 18.618182-18.618182 46.545455 0 65.163636 18.618182 18.618182 46.545455 18.618182 65.163637 0l432.872727-432.872727 432.872727 432.872727c18.618182 18.618182 46.545455 18.618182 65.163637 0 18.618182-18.618182 18.618182-46.545455 0-65.163636l-465.454546-465.454546c-9.309091-9.309091-18.618182-13.963636-32.581818-13.963636z"  horiz-adv-x="1024" />

    
    <glyph glyph-name="gongshiliebiao1" unicode="&#58925;" d="M819.2 832H204.8c-28.16 0-51.2-23.04-51.2-51.2v-793.6c0-28.16 23.04-51.2 51.2-51.2h614.4c28.16 0 51.2 23.04 51.2 51.2v793.6c0 28.16-23.04 51.2-51.2 51.2zM286.72 640H486.4c15.36 0 25.6-12.8 25.6-25.6 0-15.36-10.24-25.6-25.6-25.6h-199.68c-15.36 0-25.6 10.24-25.6 25.6s10.24 25.6 25.6 25.6z m0-153.6H486.4c15.36 0 25.6-12.8 25.6-25.6s-10.24-25.6-25.6-25.6h-199.68c-15.36 0-25.6 12.8-25.6 25.6s10.24 25.6 25.6 25.6z m448-358.4H286.72c-15.36 0-25.6 12.8-25.6 25.6 0 15.36 10.24 25.6 25.6 25.6h448c15.36 0 25.6-10.24 25.6-25.6s-12.8-25.6-25.6-25.6z m2.56 153.6H289.28c-15.36 0-25.6 10.24-25.6 25.6 0 12.8 10.24 25.6 25.6 25.6h448c15.36 0 25.6-12.8 25.6-25.6 0-15.36-12.8-25.6-25.6-25.6z"  horiz-adv-x="1024" />

    
    <glyph glyph-name="toubiaowenjian1" unicode="&#58926;" d="M775.68 793.6H386.56l-161.28-161.28c-7.68-7.68-10.24-15.36-10.24-23.04v-599.04c0-20.48 15.36-35.84 33.28-35.84h524.8c17.92 0 33.28 15.36 33.28 33.28V760.32c2.56 17.92-12.8 33.28-30.72 33.28zM355.84 153.6c-10.24 2.56-17.92 10.24-20.48 20.48-5.12 20.48 12.8 40.96 35.84 35.84 10.24-2.56 17.92-10.24 20.48-20.48 5.12-23.04-12.8-40.96-35.84-35.84z m0 120.32c-10.24 2.56-17.92 10.24-20.48 20.48-5.12 20.48 12.8 40.96 35.84 35.84 10.24-2.56 17.92-10.24 20.48-20.48 5.12-23.04-12.8-40.96-35.84-35.84z m0 120.32c-10.24 2.56-17.92 10.24-20.48 20.48-5.12 20.48 12.8 38.4 35.84 35.84 10.24-2.56 17.92-10.24 20.48-20.48 5.12-20.48-12.8-40.96-35.84-35.84zM691.2 151.04H430.08v56.32H691.2v-56.32z m0 122.88H430.08v56.32H691.2v-56.32z m0 120.32H430.08v56.32H691.2v-56.32z"  horiz-adv-x="1024" />

    
    <glyph glyph-name="shenheyijian1" unicode="&#58927;" d="M903.68 46.08l-222.72 222.72s-2.56 0-2.56 2.56c43.52 53.76 69.12 122.88 69.12 197.12 0 176.64-143.36 320-320 320-176.64-2.56-320-143.36-320-320s143.36-320 320-320c74.24 0 143.36 25.6 197.12 69.12 0 0 0-2.56 2.56-2.56l222.72-222.72c7.68-7.68 17.92-10.24 28.16-10.24 10.24 0 20.48 5.12 28.16 10.24 12.8 15.36 12.8 38.4-2.56 53.76z m-476.16 281.6c-76.8 0-138.24 61.44-138.24 138.24 0 76.8 61.44 138.24 138.24 138.24 76.8 0 138.24-61.44 138.24-138.24 0-74.24-61.44-138.24-138.24-138.24z"  horiz-adv-x="1024" />

    
    <glyph glyph-name="you" unicode="&#58928;" d="M279.272727-128c-13.963636 0-23.272727 4.654545-32.581818 13.963636-18.618182 18.618182-18.618182 46.545455 0 65.163637l432.872727 432.872727-432.872727 432.872727c-18.618182 18.618182-18.618182 46.545455 0 65.163637s46.545455 18.618182 65.163636 0l465.454546-465.454546c9.309091-9.309091 13.963636-18.618182 13.963636-32.581818s-4.654545-23.272727-13.963636-32.581818l-465.454546-465.454546c-9.309091-9.309091-18.618182-13.963636-32.581818-13.963636z"  horiz-adv-x="1024" />

    
    <glyph glyph-name="shanchu" unicode="&#58929;" d="M577.163636 384l339.781819 330.472727c18.618182 18.618182 18.618182 46.545455 0 65.163637-18.618182 18.618182-46.545455 18.618182-65.163637 0L512 449.163636 172.218182 779.636364c-18.618182 18.618182-46.545455 18.618182-65.163637 0-18.618182-18.618182-18.618182-46.545455 0-65.163637L446.836364 384l-339.781819-330.472727c-18.618182-18.618182-18.618182-46.545455 0-65.163637 9.309091-9.309091 23.272727-13.963636 32.581819-13.963636 13.963636 0 23.272727 4.654545 32.581818 13.963636l339.781818 330.472728 339.781818-330.472728c9.309091-9.309091 18.618182-13.963636 32.581818-13.963636 13.963636 0 23.272727 4.654545 32.581819 13.963636 18.618182 18.618182 18.618182 46.545455 0 65.163637L577.163636 384z"  horiz-adv-x="1024" />

    
    <glyph glyph-name="chenggong-" unicode="&#58930;" d="M512 896C229.668571 896 0 666.331429 0 384s229.668571-512 512-512 512 229.668571 512 512S794.331429 896 512 896z m0-994.742857C245.76-98.742857 29.257143 117.76 29.257143 384S245.76 866.742857 512 866.742857s482.742857-216.502857 482.742857-482.742857-216.502857-482.742857-482.742857-482.742857zM789.942857 530.285714L471.04 211.382857 292.571429 388.388571c-5.851429 5.851429-14.628571 5.851429-20.48 0s-5.851429-14.628571 0-20.48L460.8 179.2c2.925714-2.925714 7.314286-4.388571 10.24-4.388571s7.314286 1.462857 10.24 4.388571l329.142857 329.142857c5.851429 5.851429 5.851429 14.628571 0 20.48s-14.628571 5.851429-20.48 1.462857z"  horiz-adv-x="1024" />

    
    <glyph glyph-name="fanhui" unicode="&#58931;" d="M744.727273-128c-13.963636 0-23.272727 4.654545-32.581818 13.963636l-465.454546 465.454546c-9.309091 9.309091-13.963636 18.618182-13.963636 32.581818s4.654545 23.272727 13.963636 32.581818l465.454546 465.454546c18.618182 18.618182 46.545455 18.618182 65.163636 0s18.618182-46.545455 0-65.163637L344.436364 384l432.872727-432.872727c18.618182-18.618182 18.618182-46.545455 0-65.163637-9.309091-9.309091-18.618182-13.963636-32.581818-13.963636z"  horiz-adv-x="1024" />

    
    <glyph glyph-name="shouqi-" unicode="&#58932;" d="M977.454545 104.727273c-13.963636 0-23.272727 4.654545-32.581818 13.963636L512 551.563636l-432.872727-432.872727c-18.618182-18.618182-46.545455-18.618182-65.163637 0s-18.618182 46.545455 0 65.163636l465.454546 465.454546c18.618182 18.618182 46.545455 18.618182 65.163636 0l465.454546-465.454546c18.618182-18.618182 18.618182-46.545455 0-65.163636-9.309091-9.309091-18.618182-13.963636-32.581819-13.963636z"  horiz-adv-x="1024" />

    
    <glyph glyph-name="gengduo-" unicode="&#58933;" d="M512 778.971429m-109.714286 0a109.714286 109.714286 0 1 1 219.428572 0 109.714286 109.714286 0 1 1-219.428572 0ZM512 384m-109.714286 0a109.714286 109.714286 0 1 1 219.428572 0 109.714286 109.714286 0 1 1-219.428572 0ZM512-10.971429m-109.714286 0a109.714286 109.714286 0 1 1 219.428572 0 109.714286 109.714286 0 1 1-219.428572 0Z"  horiz-adv-x="1024" />

    
    <glyph glyph-name="jiantou" unicode="&#58934;" d="M512 230.4c-7.68 0-12.8 2.56-17.92 7.68l-256 256c-10.24 10.24-10.24 25.6 0 35.84 10.24 10.24 25.6 10.24 35.84 0L512 291.84l238.08 238.08c10.24 10.24 25.6 10.24 35.84 0 10.24-10.24 10.24-25.6 0-35.84l-256-256c-5.12-5.12-10.24-7.68-17.92-7.68z"  horiz-adv-x="1024" />

    
    <glyph glyph-name="jiantou1" unicode="&#58935;" d="M512.001 104.727c-13.964 0-23.273 4.655-32.582 13.964L13.965 584.145c-18.619 18.619-18.619 46.546 0 65.164 18.618 18.618 46.545 18.618 65.163 0L512.001 216.436 944.874 649.31c18.618 18.618 46.545 18.618 65.163 0 18.619-18.618 18.619-46.545 0-65.164L544.583 118.691c-9.31-9.31-18.618-13.964-32.582-13.964z"  horiz-adv-x="1024" />

    
    <glyph glyph-name="dangqianweizhi" unicode="&#58936;" d="M409.6 99.555556c-51.2 0-102.4 22.755556-142.222222 62.577777L28.444444 401.066667c-22.755556 22.755556-22.755556 56.888889 0 79.644444 22.755556 22.755556 56.888889 22.755556 79.644445 0l238.933333-244.622222c34.133333-34.133333 85.333333-34.133333 119.466667 0l455.111111 420.977778c22.755556 22.755556 56.888889 22.755556 79.644444-5.688889 22.755556-22.755556 17.066667-56.888889-5.688888-79.644445l-455.111112-420.977777c-34.133333-34.133333-85.333333-51.2-130.844444-51.2z"  horiz-adv-x="1024" />

    
    <glyph glyph-name="help" unicode="&#58921;" d="M512-128C230.4-128 0 102.4 0 384S230.4 896 512 896s512-230.4 512-512-230.4-512-512-512z m0 965.973333C262.826667 837.973333 58.026667 633.173333 58.026667 384s204.8-453.973333 453.973333-453.973333c249.173333 0 453.973333 203.093333 453.973333 453.973333S761.173333 837.973333 512 837.973333zM527.36 242.346667c-15.36 0-29.013333 13.653333-29.013333 29.013333v47.786667c0 47.786667 25.6 90.453333 64.853333 110.933333 27.306667 13.653333 44.373333 40.96 42.666667 71.68 0 42.666667-35.84 78.506667-78.506667 78.506667-22.186667 0-40.96-8.533333-56.32-22.186667-15.36-15.36-23.893333-35.84-23.893333-56.32 0-15.36-13.653333-29.013333-29.013334-29.013333s-29.013333 13.653333-29.013333 29.013333c0 37.546667 15.36 71.68 40.96 98.986667 27.306667 25.6 63.146667 40.96 98.986667 39.253333 73.386667-1.706667 134.826667-61.44 136.533333-136.533333 0-52.906667-27.306667-100.693333-75.093333-124.586667-20.48-10.24-34.133333-34.133333-34.133334-59.733333v-47.786667c0-15.36-13.653333-29.013333-29.013333-29.013333zM527.36 141.653333m-34.133333 0a34.133333 34.133333 0 1 1 68.266666 0 34.133333 34.133333 0 1 1-68.266666 0Z"  horiz-adv-x="1024" />

    
    <glyph glyph-name="fawu1" unicode="&#58941;" d="M972.8 140.8L634.88 478.72l43.52 43.52 20.48-20.48c12.8-12.8 28.16-17.92 43.52-17.92 15.36 0 30.72 5.12 43.52 17.92l38.4 38.4c23.04 23.04 23.04 61.44 0 84.48l-181.76 181.76c-23.04 23.04-61.44 23.04-84.48 0L519.68 768c-23.04-23.04-23.04-61.44 0-84.48l17.92-17.92-181.76-181.76-20.48 20.48c-23.04 23.04-61.44 23.04-84.48 0l-38.4-38.4c-23.04-23.04-23.04-61.44 0-84.48l181.76-181.76c12.8-12.8 28.16-17.92 43.52-17.92 15.36 0 30.72 5.12 43.52 17.92l38.4 38.4c10.24 10.24 17.92 25.6 17.92 43.52s-5.12 30.72-17.92 43.52l-20.48 20.48 43.52 43.52 335.36-335.36c12.8-12.8 30.72-17.92 46.08-17.92 17.92 0 33.28 7.68 46.08 17.92 28.16 20.48 28.16 61.44 2.56 87.04zM545.28 742.4l38.4 38.4c5.12 5.12 10.24 5.12 15.36 5.12s10.24-2.56 15.36-5.12l181.76-181.76c7.68-7.68 7.68-23.04 0-30.72l-38.4-38.4c-7.68-7.68-23.04-7.68-30.72 0l-181.76 181.76c-7.68 7.68-7.68 23.04 0 30.72z m-53.76-478.72l-38.4-38.4c-7.68-7.68-23.04-7.68-30.72 0l-181.76 181.76c-7.68 7.68-7.68 23.04 0 30.72l38.4 38.4c5.12 5.12 10.24 7.68 15.36 7.68 5.12 0 10.24-2.56 15.36-7.68l181.76-181.76c7.68-7.68 7.68-23.04 0-30.72z m-110.08 192l181.76 181.76 89.6-89.6-43.52-43.52-46.08-46.08-92.16-92.16-89.6 89.6z m563.2-378.88c-10.24-10.24-28.16-10.24-38.4 0L570.88 412.16l38.4 38.4 335.36-335.36c5.12-5.12 7.68-12.8 7.68-20.48s-2.56-12.8-7.68-17.92zM120.32 48.64h514.56c10.24 0 20.48 7.68 20.48 20.48s-7.68 20.48-20.48 20.48H120.32c-10.24-2.56-17.92-12.8-17.92-23.04s7.68-17.92 17.92-17.92zM704-17.92H51.2c-10.24 0-20.48-7.68-20.48-20.48s7.68-20.48 20.48-20.48h652.8c10.24 0 20.48 7.68 20.48 20.48s-10.24 20.48-20.48 20.48z"  horiz-adv-x="1024" />

    
    <glyph glyph-name="quanguocheng1" unicode="&#58942;" d="M972.8 53.76l-94.72 61.44c-5.12 5.12-12.8 5.12-20.48 0-5.12-2.56-10.24-10.24-10.24-17.92v-43.52h-133.12c-64 15.36-107.52 35.84-112.64 161.28h71.68c20.48 0 38.4 17.92 38.4 38.4v92.16c0 20.48-17.92 38.4-38.4 38.4h-71.68v64h71.68c20.48 0 38.4 17.92 38.4 38.4v92.16c0 20.48-17.92 38.4-38.4 38.4h-71.68V686.08h5.12c20.48 0 38.4 17.92 38.4 38.4V773.12c0 20.48-17.92 38.4-38.4 38.4h-51.2c-20.48 0-38.4-17.92-38.4-38.4v-48.64c0-20.48 17.92-38.4 38.4-38.4h7.68v-64h-71.68c-20.48 0-38.4-17.92-38.4-38.4v-92.16c0-20.48 17.92-38.4 38.4-38.4H563.2v-64h-71.68c-20.48 0-38.4-17.92-38.4-38.4V256c0-20.48 17.92-38.4 38.4-38.4H563.2c2.56-84.48 20.48-133.12 56.32-161.28h-256c-64 15.36-107.52 35.84-112.64 161.28h71.68c20.48 0 38.4 17.92 38.4 38.4v92.16c0 20.48-17.92 38.4-38.4 38.4H253.44v64h71.68c20.48 0 38.4 17.92 38.4 38.4v92.16c0 20.48-17.92 38.4-38.4 38.4H253.44V686.08h5.12c20.48 0 38.4 17.92 38.4 38.4V773.12c0 20.48-17.92 38.4-38.4 38.4h-51.2c-20.48 0-38.4-17.92-38.4-38.4v-48.64c0-20.48 17.92-38.4 38.4-38.4h5.12v-64H140.8c-20.48 0-38.4-17.92-38.4-38.4v-92.16c0-20.48 17.92-38.4 38.4-38.4h71.68v-64H140.8c-20.48 0-38.4-17.92-38.4-38.4V256c0-20.48 17.92-38.4 38.4-38.4h74.24c2.56-84.48 20.48-133.12 56.32-161.28H112.64c-10.24 0-20.48-7.68-20.48-20.48 0-10.24 7.68-20.48 20.48-20.48h737.28V-25.6c0-7.68 5.12-12.8 10.24-17.92 2.56-2.56 5.12-2.56 10.24-2.56 2.56 0 7.68 0 10.24 2.56l94.72 61.44c5.12 2.56 7.68 10.24 7.68 15.36-2.56 10.24-5.12 15.36-10.24 20.48zM558.08 724.48v51.2h51.2v-48.64l-51.2-2.56z m-66.56-232.96v92.16h184.32v-92.16h-184.32z m0-235.52v92.16h184.32V256h-184.32zM207.36 724.48v51.2h51.2v-48.64l-51.2-2.56z m-66.56-232.96v92.16h184.32v-92.16H140.8z m0-235.52v92.16h184.32V256H140.8z m744.96-245.76v53.76l40.96-25.6-40.96-28.16z"  horiz-adv-x="1024" />

    
    <glyph glyph-name="hetongxinxi-" unicode="&#58943;" d="M481.28 68.608h-198.656c-45.056 0-83.968 36.864-83.968 83.968V611.328c0 45.056 36.864 83.968 83.968 83.968h395.264c45.056 0 83.968-36.864 83.968-83.968v-194.56c0-8.192 6.144-16.384 16.384-16.384s16.384 6.144 16.384 16.384v194.56c0 63.488-51.2 114.688-114.688 114.688H282.624c-63.488 0-114.688-51.2-114.688-114.688v-458.752c0-63.488 51.2-114.688 114.688-114.688h198.656c8.192 0 16.384 6.144 16.384 16.384s-8.192 14.336-16.384 14.336zM675.84 492.544c0 8.192-6.144 16.384-16.384 16.384H284.672c-8.192 0-16.384-6.144-16.384-16.384 0-8.192 6.144-16.384 16.384-16.384h374.784c8.192 2.048 16.384 8.192 16.384 16.384zM577.536 375.808c0 8.192-6.144 16.384-16.384 16.384H284.672c-8.192 0-16.384-6.144-16.384-16.384 0-8.192 6.144-16.384 16.384-16.384h276.48c8.192 2.048 16.384 8.192 16.384 16.384zM284.672 275.456c-8.192 0-16.384-6.144-16.384-16.384 0-8.192 6.144-16.384 16.384-16.384h178.176c8.192 0 16.384 6.144 16.384 16.384 0 8.192-6.144 16.384-16.384 16.384h-178.176zM798.72 164.864h-4.096l-43.008 86.016c10.24 12.288 18.432 28.672 18.432 45.056 0 36.864-30.72 67.584-67.584 67.584-36.864 0-67.584-30.72-67.584-67.584 0-18.432 6.144-32.768 18.432-45.056l-43.008-86.016h-4.096c-30.72 0-57.344-24.576-57.344-57.344v-14.336c0-30.72 24.576-57.344 57.344-57.344H798.72c30.72 0 57.344 24.576 57.344 57.344v14.336c-2.048 32.768-26.624 57.344-57.344 57.344z m-96.256 167.936c20.48 0 36.864-16.384 36.864-36.864s-16.384-36.864-36.864-36.864-36.864 16.384-36.864 36.864 16.384 36.864 36.864 36.864z m-24.576-100.352c8.192-2.048 14.336-4.096 24.576-4.096 8.192 0 16.384 2.048 24.576 4.096l34.816-67.584h-116.736l32.768 67.584z m145.408-137.216c0-14.336-12.288-26.624-26.624-26.624h-192.512c-14.336 0-26.624 12.288-26.624 26.624v14.336c0 14.336 12.288 26.624 26.624 26.624H798.72c14.336 0 26.624-12.288 26.624-26.624v-14.336z"  horiz-adv-x="1024" />

    
    <glyph glyph-name="tuichu-" unicode="&#58948;" d="M512-20.48c-53.76 0-107.52 12.8-156.16 35.84-125.44 61.44-204.8 189.44-204.8 327.68s79.36 266.24 204.8 325.12c10.24 5.12 20.48 0 25.6-10.24 5.12-10.24 0-20.48-10.24-25.6-110.08-53.76-184.32-166.4-184.32-291.84s71.68-238.08 184.32-291.84c87.04-40.96 192-40.96 279.04 0 110.08 53.76 184.32 168.96 184.32 291.84s-71.68 238.08-184.32 291.84c-10.24 5.12-12.8 15.36-10.24 25.6 5.12 10.24 15.36 12.8 25.6 10.24 125.44-58.88 204.8-186.88 204.8-325.12S793.6 76.8 668.16 15.36c-48.64-23.04-102.4-35.84-156.16-35.84zM512 417.28c-38.4 0-71.68 30.72-71.68 71.68V716.8c0 38.4 30.72 71.68 71.68 71.68s71.68-30.72 71.68-71.68v-230.4c0-38.4-33.28-69.12-71.68-69.12z m0 330.24c-17.92 0-33.28-15.36-33.28-33.28v-230.4c0-17.92 15.36-33.28 33.28-33.28s33.28 15.36 33.28 33.28V716.8c0 17.92-15.36 30.72-33.28 30.72z"  horiz-adv-x="1024" />

    
    <glyph glyph-name="xiazai-" unicode="&#58949;" d="M938.666667 308.906667c-20.48 0-34.133333-13.653333-34.133334-34.133334v-184.32h-785.066666v184.32c0 20.48-13.653333 34.133333-34.133334 34.133334s-34.133333-13.653333-34.133333-34.133334v-218.453333c0-20.48 13.653333-34.133333 34.133333-34.133333h853.333334c20.48 0 34.133333 13.653333 34.133333 34.133333v218.453333c0 20.48-13.653333 34.133333-34.133333 34.133334zM484.693333 199.68c6.826667-6.826667 13.653333-10.24 23.893334-10.24h6.826666c10.24 0 17.066667 3.413333 23.893334 10.24l201.386666 201.386667c13.653333 13.653333 13.653333 34.133333 0 47.786666-13.653333 13.653333-34.133333 13.653333-47.786666 0L546.133333 302.08v409.6c0 20.48-13.653333 34.133333-34.133333 34.133333s-34.133333-13.653333-34.133333-34.133333v-409.6l-146.773334 146.773333c-13.653333 13.653333-34.133333 13.653333-47.786666 0-13.653333-13.653333-13.653333-34.133333 0-47.786666l201.386666-201.386667z"  horiz-adv-x="1024" />

    


  </font>
</defs>
</svg>
